<mxfile host="65bd71144e">
    <diagram id="hpbTYKMstUZ1kIsJPyPe" name="Program flow">
        <mxGraphModel dx="1391" dy="916" grid="1" gridSize="10" guides="1" tooltips="1" connect="1" arrows="1" fold="1" page="1" pageScale="1" pageWidth="827" pageHeight="1169" math="0" shadow="0">
            <root>
                <mxCell id="0"/>
                <mxCell id="1" parent="0"/>
                <mxCell id="IMOoXnOWQLV2Bikg6EyO-6" value="lead-node" style="shape=umlLifeline;perimeter=lifelinePerimeter;whiteSpace=wrap;html=1;container=1;collapsible=0;recursiveResize=0;outlineConnect=0;" parent="1" vertex="1">
                    <mxGeometry x="210" y="90" width="100" height="200" as="geometry"/>
                </mxCell>
                <mxCell id="IMOoXnOWQLV2Bikg6EyO-12" value="" style="html=1;points=[];perimeter=orthogonalPerimeter;" parent="IMOoXnOWQLV2Bikg6EyO-6" vertex="1">
                    <mxGeometry x="46" y="72" width="10" height="28" as="geometry"/>
                </mxCell>
                <mxCell id="IMOoXnOWQLV2Bikg6EyO-13" value="start" style="edgeStyle=orthogonalEdgeStyle;html=1;align=left;spacingLeft=2;endArrow=block;rounded=0;entryX=1;entryY=0;" parent="IMOoXnOWQLV2Bikg6EyO-6" target="IMOoXnOWQLV2Bikg6EyO-12" edge="1">
                    <mxGeometry relative="1" as="geometry">
                        <mxPoint x="51" y="52" as="sourcePoint"/>
                        <Array as="points">
                            <mxPoint x="81" y="52"/>
                        </Array>
                    </mxGeometry>
                </mxCell>
                <mxCell id="IMOoXnOWQLV2Bikg6EyO-18" value="" style="html=1;points=[];perimeter=orthogonalPerimeter;" parent="IMOoXnOWQLV2Bikg6EyO-6" vertex="1">
                    <mxGeometry x="45" y="120" width="10" height="40" as="geometry"/>
                </mxCell>
                <mxCell id="IMOoXnOWQLV2Bikg6EyO-10" value="rest-server" style="shape=umlLifeline;perimeter=lifelinePerimeter;whiteSpace=wrap;html=1;container=1;collapsible=0;recursiveResize=0;outlineConnect=0;" parent="1" vertex="1">
                    <mxGeometry x="60" y="90" width="100" height="200" as="geometry"/>
                </mxCell>
                <mxCell id="IMOoXnOWQLV2Bikg6EyO-14" value="init-message" style="html=1;verticalAlign=bottom;endArrow=block;entryX=1.022;entryY=0;entryDx=0;entryDy=0;entryPerimeter=0;" parent="1" source="IMOoXnOWQLV2Bikg6EyO-16" target="IMOoXnOWQLV2Bikg6EyO-18" edge="1">
                    <mxGeometry width="80" relative="1" as="geometry">
                        <mxPoint x="409.5" y="199.58399999999995" as="sourcePoint"/>
                        <mxPoint x="320" y="210" as="targetPoint"/>
                    </mxGeometry>
                </mxCell>
                <mxCell id="IMOoXnOWQLV2Bikg6EyO-16" value="storage-node" style="shape=umlLifeline;perimeter=lifelinePerimeter;whiteSpace=wrap;html=1;container=1;collapsible=0;recursiveResize=0;outlineConnect=0;" parent="1" vertex="1">
                    <mxGeometry x="350" y="90" width="100" height="200" as="geometry"/>
                </mxCell>
                <mxCell id="IMOoXnOWQLV2Bikg6EyO-20" value="append to&lt;br&gt;knwon nodes list" style="edgeStyle=orthogonalEdgeStyle;html=1;align=left;spacingLeft=2;endArrow=block;rounded=0;exitX=1.067;exitY=0.417;exitDx=0;exitDy=0;exitPerimeter=0;" parent="1" source="IMOoXnOWQLV2Bikg6EyO-18" edge="1">
                    <mxGeometry x="0.05" relative="1" as="geometry">
                        <mxPoint x="280" y="250" as="sourcePoint"/>
                        <Array as="points">
                            <mxPoint x="290" y="227"/>
                            <mxPoint x="290" y="250"/>
                        </Array>
                        <mxPoint x="266" y="250" as="targetPoint"/>
                        <mxPoint as="offset"/>
                    </mxGeometry>
                </mxCell>
                <mxCell id="2" value="lead-node" style="shape=umlLifeline;perimeter=lifelinePerimeter;whiteSpace=wrap;html=1;container=1;collapsible=0;recursiveResize=0;outlineConnect=0;" vertex="1" parent="1">
                    <mxGeometry x="216" y="880" width="100" height="480" as="geometry"/>
                </mxCell>
                <mxCell id="6" value="rest-server" style="shape=umlLifeline;perimeter=lifelinePerimeter;whiteSpace=wrap;html=1;container=1;collapsible=0;recursiveResize=0;outlineConnect=0;" vertex="1" parent="1">
                    <mxGeometry x="66" y="880" width="100" height="480" as="geometry"/>
                </mxCell>
                <mxCell id="8" value="storage-node #1" style="shape=umlLifeline;perimeter=lifelinePerimeter;whiteSpace=wrap;html=1;container=1;collapsible=0;recursiveResize=0;outlineConnect=0;" vertex="1" parent="1">
                    <mxGeometry x="356" y="880" width="100" height="480" as="geometry"/>
                </mxCell>
                <mxCell id="15" value="" style="html=1;points=[];perimeter=orthogonalPerimeter;" vertex="1" parent="8">
                    <mxGeometry x="45" y="153.01999999999998" width="10" height="40" as="geometry"/>
                </mxCell>
                <mxCell id="16" value="save to disk" style="edgeStyle=orthogonalEdgeStyle;html=1;align=left;spacingLeft=2;endArrow=block;rounded=0;entryX=1;entryY=0;" edge="1" target="15" parent="8">
                    <mxGeometry relative="1" as="geometry">
                        <mxPoint x="50" y="133.01999999999998" as="sourcePoint"/>
                        <Array as="points">
                            <mxPoint x="80" y="133.01999999999998"/>
                        </Array>
                    </mxGeometry>
                </mxCell>
                <mxCell id="17" value="" style="html=1;points=[];perimeter=orthogonalPerimeter;" vertex="1" parent="8">
                    <mxGeometry x="45" y="279.03" width="10" height="40" as="geometry"/>
                </mxCell>
                <mxCell id="18" value="construct new&lt;br&gt;send_data_req&lt;br&gt;message" style="edgeStyle=orthogonalEdgeStyle;html=1;align=left;spacingLeft=2;endArrow=block;rounded=0;entryX=1;entryY=0;" edge="1" target="17" parent="8">
                    <mxGeometry relative="1" as="geometry">
                        <mxPoint x="50" y="259.03" as="sourcePoint"/>
                        <Array as="points">
                            <mxPoint x="80" y="259.03"/>
                        </Array>
                    </mxGeometry>
                </mxCell>
                <mxCell id="10" value="" style="endArrow=blockThin;html=1;startArrow=none;startFill=0;endFill=1;" edge="1" parent="1" source="6" target="2">
                    <mxGeometry width="50" height="50" relative="1" as="geometry">
                        <mxPoint x="310" y="1070" as="sourcePoint"/>
                        <mxPoint x="360" y="1020" as="targetPoint"/>
                        <Array as="points">
                            <mxPoint x="210" y="960"/>
                        </Array>
                    </mxGeometry>
                </mxCell>
                <mxCell id="11" value="send data_req message" style="edgeLabel;html=1;align=center;verticalAlign=middle;resizable=0;points=[];" vertex="1" connectable="0" parent="10">
                    <mxGeometry x="0.0304" y="2" relative="1" as="geometry">
                        <mxPoint y="-8" as="offset"/>
                    </mxGeometry>
                </mxCell>
                <mxCell id="12" value="" style="endArrow=blockThin;html=1;endFill=1;" edge="1" parent="1" source="2" target="8">
                    <mxGeometry width="50" height="50" relative="1" as="geometry">
                        <mxPoint x="340" y="1130" as="sourcePoint"/>
                        <mxPoint x="390" y="990" as="targetPoint"/>
                        <Array as="points">
                            <mxPoint x="360" y="990"/>
                        </Array>
                    </mxGeometry>
                </mxCell>
                <mxCell id="13" value="send send_data_req &lt;br&gt;message" style="edgeLabel;html=1;align=center;verticalAlign=middle;resizable=0;points=[];" vertex="1" connectable="0" parent="12">
                    <mxGeometry x="0.0597" y="1" relative="1" as="geometry">
                        <mxPoint as="offset"/>
                    </mxGeometry>
                </mxCell>
                <mxCell id="14" value="storage-node #2" style="shape=umlLifeline;perimeter=lifelinePerimeter;whiteSpace=wrap;html=1;container=1;collapsible=0;recursiveResize=0;outlineConnect=0;" vertex="1" parent="1">
                    <mxGeometry x="510" y="880" width="100" height="480" as="geometry"/>
                </mxCell>
                <mxCell id="23" value="" style="html=1;points=[];perimeter=orthogonalPerimeter;" vertex="1" parent="14">
                    <mxGeometry x="46" y="366.02" width="10" height="40" as="geometry"/>
                </mxCell>
                <mxCell id="24" value="save to disk" style="edgeStyle=orthogonalEdgeStyle;html=1;align=left;spacingLeft=2;endArrow=block;rounded=0;entryX=1;entryY=0;" edge="1" parent="14" target="23">
                    <mxGeometry relative="1" as="geometry">
                        <mxPoint x="51" y="346.02" as="sourcePoint"/>
                        <Array as="points">
                            <mxPoint x="81" y="346.02"/>
                        </Array>
                    </mxGeometry>
                </mxCell>
                <mxCell id="19" value="" style="endArrow=blockThin;html=1;startArrow=none;startFill=0;endFill=1;exitX=1.055;exitY=1.005;exitDx=0;exitDy=0;exitPerimeter=0;" edge="1" parent="1" source="17">
                    <mxGeometry width="50" height="50" relative="1" as="geometry">
                        <mxPoint x="410.0003448275861" y="1199" as="sourcePoint"/>
                        <mxPoint x="559.69" y="1199" as="targetPoint"/>
                        <Array as="points">
                            <mxPoint x="504.19000000000005" y="1199"/>
                        </Array>
                    </mxGeometry>
                </mxCell>
                <mxCell id="20" value="send data_req message" style="edgeLabel;html=1;align=center;verticalAlign=middle;resizable=0;points=[];" vertex="1" connectable="0" parent="19">
                    <mxGeometry x="0.0304" y="2" relative="1" as="geometry">
                        <mxPoint y="-8" as="offset"/>
                    </mxGeometry>
                </mxCell>
                <mxCell id="25" value="lead-node" style="shape=umlLifeline;perimeter=lifelinePerimeter;whiteSpace=wrap;html=1;container=1;collapsible=0;recursiveResize=0;outlineConnect=0;" vertex="1" parent="1">
                    <mxGeometry x="210" y="402" width="100" height="390" as="geometry"/>
                </mxCell>
                <mxCell id="46" value="" style="endArrow=blockThin;html=1;endFill=1;" edge="1" parent="25" target="36">
                    <mxGeometry width="50" height="50" relative="1" as="geometry">
                        <mxPoint x="50" y="140" as="sourcePoint"/>
                        <mxPoint x="185.67000000000002" y="140" as="targetPoint"/>
                        <Array as="points">
                            <mxPoint x="140.17000000000002" y="140"/>
                        </Array>
                    </mxGeometry>
                </mxCell>
                <mxCell id="47" value="send&amp;nbsp;&lt;br&gt;retrieve_data_request&lt;br&gt;message" style="edgeLabel;html=1;align=center;verticalAlign=middle;resizable=0;points=[];" vertex="1" connectable="0" parent="46">
                    <mxGeometry x="0.0597" y="1" relative="1" as="geometry">
                        <mxPoint x="65" as="offset"/>
                    </mxGeometry>
                </mxCell>
                <mxCell id="26" value="rest-server" style="shape=umlLifeline;perimeter=lifelinePerimeter;whiteSpace=wrap;html=1;container=1;collapsible=0;recursiveResize=0;outlineConnect=0;" vertex="1" parent="1">
                    <mxGeometry x="60" y="402" width="100" height="390" as="geometry"/>
                </mxCell>
                <mxCell id="27" value="storage-node #1" style="shape=umlLifeline;perimeter=lifelinePerimeter;whiteSpace=wrap;html=1;container=1;collapsible=0;recursiveResize=0;outlineConnect=0;" vertex="1" parent="1">
                    <mxGeometry x="350" y="402" width="100" height="390" as="geometry"/>
                </mxCell>
                <mxCell id="30" value="" style="html=1;points=[];perimeter=orthogonalPerimeter;" vertex="1" parent="27">
                    <mxGeometry x="45" y="202.02999999999997" width="10" height="40" as="geometry"/>
                </mxCell>
                <mxCell id="31" value="Read&amp;nbsp; file from disk&lt;br&gt;if file exists" style="edgeStyle=orthogonalEdgeStyle;html=1;align=left;spacingLeft=2;endArrow=block;rounded=0;entryX=1;entryY=0;" edge="1" parent="27" target="30">
                    <mxGeometry relative="1" as="geometry">
                        <mxPoint x="50" y="182.02999999999997" as="sourcePoint"/>
                        <Array as="points">
                            <mxPoint x="80" y="182.02999999999997"/>
                        </Array>
                    </mxGeometry>
                </mxCell>
                <mxCell id="32" value="" style="endArrow=blockThin;html=1;startArrow=none;startFill=0;endFill=1;" edge="1" parent="1" source="26" target="25">
                    <mxGeometry width="50" height="50" relative="1" as="geometry">
                        <mxPoint x="304" y="592" as="sourcePoint"/>
                        <mxPoint x="354" y="542" as="targetPoint"/>
                        <Array as="points">
                            <mxPoint x="204" y="482"/>
                        </Array>
                    </mxGeometry>
                </mxCell>
                <mxCell id="33" value="send data_req message" style="edgeLabel;html=1;align=center;verticalAlign=middle;resizable=0;points=[];" vertex="1" connectable="0" parent="32">
                    <mxGeometry x="0.0304" y="2" relative="1" as="geometry">
                        <mxPoint y="-8" as="offset"/>
                    </mxGeometry>
                </mxCell>
                <mxCell id="34" value="" style="endArrow=blockThin;html=1;endFill=1;" edge="1" parent="1" source="25" target="27">
                    <mxGeometry width="50" height="50" relative="1" as="geometry">
                        <mxPoint x="334" y="652" as="sourcePoint"/>
                        <mxPoint x="384" y="512" as="targetPoint"/>
                        <Array as="points">
                            <mxPoint x="354" y="512"/>
                        </Array>
                    </mxGeometry>
                </mxCell>
                <mxCell id="35" value="send&amp;nbsp;&lt;br&gt;retrieve_data_request&lt;br&gt;message" style="edgeLabel;html=1;align=center;verticalAlign=middle;resizable=0;points=[];" vertex="1" connectable="0" parent="34">
                    <mxGeometry x="0.0597" y="1" relative="1" as="geometry">
                        <mxPoint x="-4" as="offset"/>
                    </mxGeometry>
                </mxCell>
                <mxCell id="36" value="storage-node #2" style="shape=umlLifeline;perimeter=lifelinePerimeter;whiteSpace=wrap;html=1;container=1;collapsible=0;recursiveResize=0;outlineConnect=0;" vertex="1" parent="1">
                    <mxGeometry x="504" y="402" width="100" height="390" as="geometry"/>
                </mxCell>
                <mxCell id="50" value="" style="html=1;points=[];perimeter=orthogonalPerimeter;" vertex="1" parent="36">
                    <mxGeometry x="44.370000000000005" y="295.03" width="10" height="40" as="geometry"/>
                </mxCell>
                <mxCell id="51" value="Read&amp;nbsp; file from disk&lt;br&gt;if file exists" style="edgeStyle=orthogonalEdgeStyle;html=1;align=left;spacingLeft=2;endArrow=block;rounded=0;entryX=1;entryY=0;" edge="1" parent="36" target="50">
                    <mxGeometry relative="1" as="geometry">
                        <mxPoint x="49.370000000000005" y="275.03" as="sourcePoint"/>
                        <Array as="points">
                            <mxPoint x="79.37" y="275.03"/>
                        </Array>
                    </mxGeometry>
                </mxCell>
                <mxCell id="44" value="" style="endArrow=blockThin;html=1;exitX=0.5;exitY=0.949;exitDx=0;exitDy=0;exitPerimeter=0;endFill=1;" edge="1" parent="1">
                    <mxGeometry width="50" height="50" relative="1" as="geometry">
                        <mxPoint x="400" y="643.9899999999999" as="sourcePoint"/>
                        <mxPoint x="259.63043478260875" y="644" as="targetPoint"/>
                        <Array as="points">
                            <mxPoint x="370" y="644"/>
                        </Array>
                    </mxGeometry>
                </mxCell>
                <mxCell id="45" value="send file" style="edgeLabel;html=1;align=center;verticalAlign=middle;resizable=0;points=[];" vertex="1" connectable="0" parent="44">
                    <mxGeometry x="-0.1261" y="2" relative="1" as="geometry">
                        <mxPoint y="-2" as="offset"/>
                    </mxGeometry>
                </mxCell>
                <mxCell id="58" value="" style="endArrow=none;html=1;exitX=0.002;exitY=0.574;exitDx=0;exitDy=0;exitPerimeter=0;entryX=0.998;entryY=0.56;entryDx=0;entryDy=0;entryPerimeter=0;" edge="1" parent="1">
                    <mxGeometry width="50" height="50" relative="1" as="geometry">
                        <mxPoint x="230.92000000000007" y="671.06" as="sourcePoint"/>
                        <mxPoint x="689.0799999999999" y="668.4000000000001" as="targetPoint"/>
                    </mxGeometry>
                </mxCell>
                <mxCell id="59" value="file.exists == false" style="text;html=1;strokeColor=none;fillColor=none;align=center;verticalAlign=middle;whiteSpace=wrap;rounded=0;" vertex="1" parent="1">
                    <mxGeometry x="430" y="672" width="100" height="20" as="geometry"/>
                </mxCell>
                <mxCell id="60" value="file.exists == false" style="text;html=1;strokeColor=none;fillColor=none;align=center;verticalAlign=middle;whiteSpace=wrap;rounded=0;" vertex="1" parent="1">
                    <mxGeometry x="420" y="562" width="100" height="10" as="geometry"/>
                </mxCell>
                <mxCell id="62" value="" style="endArrow=blockThin;html=1;endFill=1;" edge="1" parent="1" source="25" target="26">
                    <mxGeometry width="50" height="50" relative="1" as="geometry">
                        <mxPoint x="320" y="672" as="sourcePoint"/>
                        <mxPoint x="370" y="622" as="targetPoint"/>
                        <Array as="points">
                            <mxPoint x="170" y="772"/>
                        </Array>
                    </mxGeometry>
                </mxCell>
                <mxCell id="63" value="send file" style="edgeLabel;html=1;align=center;verticalAlign=middle;resizable=0;points=[];" vertex="1" connectable="0" parent="62">
                    <mxGeometry x="0.0369" y="-3" relative="1" as="geometry">
                        <mxPoint as="offset"/>
                    </mxGeometry>
                </mxCell>
                <mxCell id="64" value="opt" style="shape=umlFrame;whiteSpace=wrap;html=1;" vertex="1" parent="1">
                    <mxGeometry x="230" y="561" width="460" height="190" as="geometry"/>
                </mxCell>
                <mxCell id="71" value="opt" style="shape=umlFrame;whiteSpace=wrap;html=1;" vertex="1" parent="1">
                    <mxGeometry x="340" y="1104" width="320" height="226" as="geometry"/>
                </mxCell>
                <mxCell id="72" value="" style="endArrow=none;html=1;exitX=-0.001;exitY=0.689;exitDx=0;exitDy=0;exitPerimeter=0;entryX=1.001;entryY=0.689;entryDx=0;entryDy=0;entryPerimeter=0;" edge="1" parent="1">
                    <mxGeometry width="50" height="50" relative="1" as="geometry">
                        <mxPoint x="339.67999999999984" y="1290.714" as="sourcePoint"/>
                        <mxPoint x="660.3200000000002" y="1290.714" as="targetPoint"/>
                    </mxGeometry>
                </mxCell>
                <mxCell id="73" value="num_pre &amp;gt; 0" style="text;html=1;strokeColor=none;fillColor=none;align=center;verticalAlign=middle;whiteSpace=wrap;rounded=0;" vertex="1" parent="1">
                    <mxGeometry x="450" y="1104" width="100" height="16" as="geometry"/>
                </mxCell>
                <mxCell id="74" value="num_pre == 0" style="text;html=1;strokeColor=none;fillColor=none;align=center;verticalAlign=middle;whiteSpace=wrap;rounded=0;" vertex="1" parent="1">
                    <mxGeometry x="450" y="1290" width="100" height="16" as="geometry"/>
                </mxCell>
                <mxCell id="76" value="&lt;b&gt;SEQ&lt;/b&gt; System init" style="shape=umlFrame;whiteSpace=wrap;html=1;width=100;height=30;align=left;" vertex="1" parent="1">
                    <mxGeometry x="40" y="40" width="430" height="250" as="geometry"/>
                </mxCell>
                <mxCell id="5WUikYk7vE8dVYP5Irtz-76" value="&lt;b&gt;SEQ&lt;/b&gt; Retrive file" style="shape=umlFrame;whiteSpace=wrap;html=1;width=100;height=30;align=left;" vertex="1" parent="1">
                    <mxGeometry x="40" y="362" width="670" height="430" as="geometry"/>
                </mxCell>
                <mxCell id="5WUikYk7vE8dVYP5Irtz-77" value="&lt;b&gt;SEQ &lt;/b&gt;Store file" style="shape=umlFrame;whiteSpace=wrap;html=1;width=90;height=30;align=left;" vertex="1" parent="1">
                    <mxGeometry x="40" y="840" width="701" height="520" as="geometry"/>
                </mxCell>
            </root>
        </mxGraphModel>
    </diagram>
    <diagram id="YHbWUUz5voofyjovzn7j" name="ZMQ">
        <mxGraphModel dx="1182" dy="779" grid="1" gridSize="10" guides="1" tooltips="1" connect="1" arrows="1" fold="1" page="1" pageScale="1" pageWidth="827" pageHeight="1169" math="0" shadow="0">
            <root>
                <mxCell id="DcdAETs1muwsW6-YgNY1-0"/>
                <mxCell id="DcdAETs1muwsW6-YgNY1-1" parent="DcdAETs1muwsW6-YgNY1-0"/>
                <mxCell id="DcdAETs1muwsW6-YgNY1-2" value="" style="rounded=1;whiteSpace=wrap;html=1;strokeColor=default;" parent="DcdAETs1muwsW6-YgNY1-1" vertex="1">
                    <mxGeometry x="200" y="320" width="120" height="60" as="geometry"/>
                </mxCell>
                <mxCell id="DcdAETs1muwsW6-YgNY1-3" style="edgeStyle=orthogonalEdgeStyle;rounded=0;orthogonalLoop=1;jettySize=auto;html=1;exitX=0.5;exitY=0;exitDx=0;exitDy=0;entryX=0.5;entryY=0;entryDx=0;entryDy=0;startArrow=none;startFill=0;endArrow=none;endFill=0;" parent="DcdAETs1muwsW6-YgNY1-1" source="DcdAETs1muwsW6-YgNY1-4" target="DcdAETs1muwsW6-YgNY1-21" edge="1">
                    <mxGeometry relative="1" as="geometry">
                        <Array as="points">
                            <mxPoint x="230" y="280"/>
                            <mxPoint x="390" y="280"/>
                        </Array>
                    </mxGeometry>
                </mxCell>
                <mxCell id="DcdAETs1muwsW6-YgNY1-4" value="PAIR" style="text;html=1;strokeColor=none;fillColor=none;align=center;verticalAlign=middle;whiteSpace=wrap;rounded=0;" parent="DcdAETs1muwsW6-YgNY1-1" vertex="1">
                    <mxGeometry x="200" y="320" width="60" height="20" as="geometry"/>
                </mxCell>
                <mxCell id="DcdAETs1muwsW6-YgNY1-5" style="edgeStyle=orthogonalEdgeStyle;rounded=0;orthogonalLoop=1;jettySize=auto;html=1;entryX=0.5;entryY=1;entryDx=0;entryDy=0;" parent="DcdAETs1muwsW6-YgNY1-1" target="DcdAETs1muwsW6-YgNY1-6" edge="1">
                    <mxGeometry relative="1" as="geometry">
                        <mxPoint x="380" y="460" as="sourcePoint"/>
                        <Array as="points">
                            <mxPoint x="380" y="460"/>
                            <mxPoint x="220" y="460"/>
                        </Array>
                    </mxGeometry>
                </mxCell>
                <mxCell id="DcdAETs1muwsW6-YgNY1-6" value="PULL" style="text;html=1;strokeColor=none;fillColor=none;align=center;verticalAlign=middle;whiteSpace=wrap;rounded=0;" parent="DcdAETs1muwsW6-YgNY1-1" vertex="1">
                    <mxGeometry x="200" y="360" width="40" height="20" as="geometry"/>
                </mxCell>
                <mxCell id="DcdAETs1muwsW6-YgNY1-7" style="edgeStyle=orthogonalEdgeStyle;rounded=0;orthogonalLoop=1;jettySize=auto;html=1;exitX=0.5;exitY=1;exitDx=0;exitDy=0;entryX=0.5;entryY=0;entryDx=0;entryDy=0;dashed=1;" parent="DcdAETs1muwsW6-YgNY1-1" source="DcdAETs1muwsW6-YgNY1-8" target="DcdAETs1muwsW6-YgNY1-52" edge="1">
                    <mxGeometry relative="1" as="geometry">
                        <Array as="points">
                            <mxPoint x="260" y="440"/>
                            <mxPoint x="420" y="440"/>
                        </Array>
                    </mxGeometry>
                </mxCell>
                <mxCell id="DcdAETs1muwsW6-YgNY1-8" value="PUB" style="text;html=1;strokeColor=none;fillColor=none;align=center;verticalAlign=middle;whiteSpace=wrap;rounded=0;" parent="DcdAETs1muwsW6-YgNY1-1" vertex="1">
                    <mxGeometry x="240" y="360" width="40" height="20" as="geometry"/>
                </mxCell>
                <mxCell id="DcdAETs1muwsW6-YgNY1-9" style="edgeStyle=orthogonalEdgeStyle;rounded=0;orthogonalLoop=1;jettySize=auto;html=1;exitX=0.5;exitY=0;exitDx=0;exitDy=0;entryX=0.5;entryY=0;entryDx=0;entryDy=0;startArrow=none;startFill=0;endArrow=none;endFill=0;" parent="DcdAETs1muwsW6-YgNY1-1" source="DcdAETs1muwsW6-YgNY1-37" target="DcdAETs1muwsW6-YgNY1-24" edge="1">
                    <mxGeometry relative="1" as="geometry">
                        <Array as="points">
                            <mxPoint x="610" y="280"/>
                            <mxPoint x="450" y="280"/>
                        </Array>
                    </mxGeometry>
                </mxCell>
                <mxCell id="DcdAETs1muwsW6-YgNY1-10" style="edgeStyle=orthogonalEdgeStyle;rounded=0;orthogonalLoop=1;jettySize=auto;html=1;exitX=0.5;exitY=0;exitDx=0;exitDy=0;entryX=0.5;entryY=0;entryDx=0;entryDy=0;startArrow=none;startFill=0;endArrow=none;endFill=0;dashed=1;" parent="DcdAETs1muwsW6-YgNY1-1" source="DcdAETs1muwsW6-YgNY1-11" target="DcdAETs1muwsW6-YgNY1-34" edge="1">
                    <mxGeometry relative="1" as="geometry"/>
                </mxCell>
                <mxCell id="DcdAETs1muwsW6-YgNY1-11" value="PAIR" style="text;html=1;strokeColor=none;fillColor=none;align=center;verticalAlign=middle;whiteSpace=wrap;rounded=0;perimeterSpacing=0;" parent="DcdAETs1muwsW6-YgNY1-1" vertex="1">
                    <mxGeometry x="260" y="320" width="60" height="20" as="geometry"/>
                </mxCell>
                <mxCell id="DcdAETs1muwsW6-YgNY1-12" value="" style="endArrow=none;html=1;rounded=0;entryX=1;entryY=1;entryDx=0;entryDy=0;exitX=0;exitY=1;exitDx=0;exitDy=0;" parent="DcdAETs1muwsW6-YgNY1-1" source="DcdAETs1muwsW6-YgNY1-4" target="DcdAETs1muwsW6-YgNY1-11" edge="1">
                    <mxGeometry width="50" height="50" relative="1" as="geometry">
                        <mxPoint x="320" y="420" as="sourcePoint"/>
                        <mxPoint x="370" y="370" as="targetPoint"/>
                    </mxGeometry>
                </mxCell>
                <mxCell id="DcdAETs1muwsW6-YgNY1-13" value="" style="endArrow=none;html=1;rounded=0;exitX=0;exitY=0;exitDx=0;exitDy=0;entryX=1;entryY=0;entryDx=0;entryDy=0;" parent="DcdAETs1muwsW6-YgNY1-1" source="DcdAETs1muwsW6-YgNY1-6" target="DcdAETs1muwsW6-YgNY1-17" edge="1">
                    <mxGeometry width="50" height="50" relative="1" as="geometry">
                        <mxPoint x="350" y="390" as="sourcePoint"/>
                        <mxPoint x="410" y="380" as="targetPoint"/>
                    </mxGeometry>
                </mxCell>
                <mxCell id="DcdAETs1muwsW6-YgNY1-14" value="" style="endArrow=none;html=1;rounded=0;exitX=0;exitY=0;exitDx=0;exitDy=0;entryX=0;entryY=1;entryDx=0;entryDy=0;" parent="DcdAETs1muwsW6-YgNY1-1" source="DcdAETs1muwsW6-YgNY1-11" target="DcdAETs1muwsW6-YgNY1-11" edge="1">
                    <mxGeometry width="50" height="50" relative="1" as="geometry">
                        <mxPoint x="290" y="390" as="sourcePoint"/>
                        <mxPoint x="340" y="340" as="targetPoint"/>
                    </mxGeometry>
                </mxCell>
                <mxCell id="DcdAETs1muwsW6-YgNY1-15" value="DataNode" style="text;html=1;strokeColor=none;fillColor=none;align=center;verticalAlign=middle;whiteSpace=wrap;rounded=0;" parent="DcdAETs1muwsW6-YgNY1-1" vertex="1">
                    <mxGeometry x="200" y="340" width="120" height="20" as="geometry"/>
                </mxCell>
                <mxCell id="DcdAETs1muwsW6-YgNY1-16" style="edgeStyle=orthogonalEdgeStyle;rounded=0;orthogonalLoop=1;jettySize=auto;html=1;entryX=0.5;entryY=1;entryDx=0;entryDy=0;dashed=1;dashPattern=1 1;" parent="DcdAETs1muwsW6-YgNY1-1" target="DcdAETs1muwsW6-YgNY1-17" edge="1">
                    <mxGeometry relative="1" as="geometry">
                        <mxPoint x="460" y="420" as="sourcePoint"/>
                        <Array as="points">
                            <mxPoint x="460" y="420"/>
                            <mxPoint x="300" y="420"/>
                        </Array>
                    </mxGeometry>
                </mxCell>
                <mxCell id="DcdAETs1muwsW6-YgNY1-17" value="SUB" style="text;html=1;strokeColor=none;fillColor=none;align=center;verticalAlign=middle;whiteSpace=wrap;rounded=0;" parent="DcdAETs1muwsW6-YgNY1-1" vertex="1">
                    <mxGeometry x="280" y="360" width="40" height="20" as="geometry"/>
                </mxCell>
                <mxCell id="DcdAETs1muwsW6-YgNY1-18" value="" style="endArrow=none;html=1;rounded=0;exitX=0;exitY=1;exitDx=0;exitDy=0;entryX=0;entryY=0;entryDx=0;entryDy=0;" parent="DcdAETs1muwsW6-YgNY1-1" source="DcdAETs1muwsW6-YgNY1-8" target="DcdAETs1muwsW6-YgNY1-8" edge="1">
                    <mxGeometry width="50" height="50" relative="1" as="geometry">
                        <mxPoint x="270" y="400" as="sourcePoint"/>
                        <mxPoint x="320" y="350" as="targetPoint"/>
                    </mxGeometry>
                </mxCell>
                <mxCell id="DcdAETs1muwsW6-YgNY1-19" value="" style="endArrow=none;html=1;rounded=0;exitX=0;exitY=1;exitDx=0;exitDy=0;entryX=0;entryY=0;entryDx=0;entryDy=0;" parent="DcdAETs1muwsW6-YgNY1-1" source="DcdAETs1muwsW6-YgNY1-17" target="DcdAETs1muwsW6-YgNY1-17" edge="1">
                    <mxGeometry width="50" height="50" relative="1" as="geometry">
                        <mxPoint x="250" y="390" as="sourcePoint"/>
                        <mxPoint x="250" y="370" as="targetPoint"/>
                    </mxGeometry>
                </mxCell>
                <mxCell id="DcdAETs1muwsW6-YgNY1-20" value="" style="rounded=1;whiteSpace=wrap;html=1;strokeColor=default;" parent="DcdAETs1muwsW6-YgNY1-1" vertex="1">
                    <mxGeometry x="360" y="320" width="120" height="60" as="geometry"/>
                </mxCell>
                <mxCell id="DcdAETs1muwsW6-YgNY1-21" value="PAIR" style="text;html=1;strokeColor=none;fillColor=none;align=center;verticalAlign=middle;whiteSpace=wrap;rounded=0;" parent="DcdAETs1muwsW6-YgNY1-1" vertex="1">
                    <mxGeometry x="360" y="320" width="60" height="20" as="geometry"/>
                </mxCell>
                <mxCell id="DcdAETs1muwsW6-YgNY1-22" value="PULL" style="text;html=1;strokeColor=none;fillColor=none;align=center;verticalAlign=middle;whiteSpace=wrap;rounded=0;" parent="DcdAETs1muwsW6-YgNY1-1" vertex="1">
                    <mxGeometry x="360" y="360" width="40" height="20" as="geometry"/>
                </mxCell>
                <mxCell id="DcdAETs1muwsW6-YgNY1-23" value="PUB" style="text;html=1;strokeColor=none;fillColor=none;align=center;verticalAlign=middle;whiteSpace=wrap;rounded=0;" parent="DcdAETs1muwsW6-YgNY1-1" vertex="1">
                    <mxGeometry x="400" y="360" width="40" height="20" as="geometry"/>
                </mxCell>
                <mxCell id="DcdAETs1muwsW6-YgNY1-24" value="PAIR" style="text;html=1;strokeColor=none;fillColor=none;align=center;verticalAlign=middle;whiteSpace=wrap;rounded=0;perimeterSpacing=0;" parent="DcdAETs1muwsW6-YgNY1-1" vertex="1">
                    <mxGeometry x="420" y="320" width="60" height="20" as="geometry"/>
                </mxCell>
                <mxCell id="DcdAETs1muwsW6-YgNY1-25" value="" style="endArrow=none;html=1;rounded=0;entryX=1;entryY=1;entryDx=0;entryDy=0;exitX=0;exitY=1;exitDx=0;exitDy=0;" parent="DcdAETs1muwsW6-YgNY1-1" source="DcdAETs1muwsW6-YgNY1-21" target="DcdAETs1muwsW6-YgNY1-24" edge="1">
                    <mxGeometry width="50" height="50" relative="1" as="geometry">
                        <mxPoint x="480" y="420" as="sourcePoint"/>
                        <mxPoint x="530" y="370" as="targetPoint"/>
                    </mxGeometry>
                </mxCell>
                <mxCell id="DcdAETs1muwsW6-YgNY1-26" value="" style="endArrow=none;html=1;rounded=0;exitX=0;exitY=0;exitDx=0;exitDy=0;entryX=1;entryY=0;entryDx=0;entryDy=0;" parent="DcdAETs1muwsW6-YgNY1-1" source="DcdAETs1muwsW6-YgNY1-22" target="DcdAETs1muwsW6-YgNY1-30" edge="1">
                    <mxGeometry width="50" height="50" relative="1" as="geometry">
                        <mxPoint x="510" y="390" as="sourcePoint"/>
                        <mxPoint x="570" y="380" as="targetPoint"/>
                    </mxGeometry>
                </mxCell>
                <mxCell id="DcdAETs1muwsW6-YgNY1-27" value="" style="endArrow=none;html=1;rounded=0;exitX=0;exitY=0;exitDx=0;exitDy=0;entryX=0;entryY=1;entryDx=0;entryDy=0;" parent="DcdAETs1muwsW6-YgNY1-1" source="DcdAETs1muwsW6-YgNY1-24" target="DcdAETs1muwsW6-YgNY1-24" edge="1">
                    <mxGeometry width="50" height="50" relative="1" as="geometry">
                        <mxPoint x="450" y="390" as="sourcePoint"/>
                        <mxPoint x="500" y="340" as="targetPoint"/>
                    </mxGeometry>
                </mxCell>
                <mxCell id="DcdAETs1muwsW6-YgNY1-28" value="DataNode" style="text;html=1;strokeColor=none;fillColor=none;align=center;verticalAlign=middle;whiteSpace=wrap;rounded=0;" parent="DcdAETs1muwsW6-YgNY1-1" vertex="1">
                    <mxGeometry x="360" y="340" width="120" height="20" as="geometry"/>
                </mxCell>
                <mxCell id="DcdAETs1muwsW6-YgNY1-29" style="edgeStyle=orthogonalEdgeStyle;rounded=0;orthogonalLoop=1;jettySize=auto;html=1;exitX=0.5;exitY=0;exitDx=0;exitDy=0;entryX=0.5;entryY=1;entryDx=0;entryDy=0;dashed=1;dashPattern=1 1;" parent="DcdAETs1muwsW6-YgNY1-1" source="DcdAETs1muwsW6-YgNY1-57" target="DcdAETs1muwsW6-YgNY1-30" edge="1">
                    <mxGeometry relative="1" as="geometry"/>
                </mxCell>
                <mxCell id="DcdAETs1muwsW6-YgNY1-30" value="SUB" style="text;html=1;strokeColor=none;fillColor=none;align=center;verticalAlign=middle;whiteSpace=wrap;rounded=0;" parent="DcdAETs1muwsW6-YgNY1-1" vertex="1">
                    <mxGeometry x="440" y="360" width="40" height="20" as="geometry"/>
                </mxCell>
                <mxCell id="DcdAETs1muwsW6-YgNY1-31" value="" style="endArrow=none;html=1;rounded=0;exitX=0;exitY=1;exitDx=0;exitDy=0;entryX=0;entryY=0;entryDx=0;entryDy=0;" parent="DcdAETs1muwsW6-YgNY1-1" source="DcdAETs1muwsW6-YgNY1-23" target="DcdAETs1muwsW6-YgNY1-23" edge="1">
                    <mxGeometry width="50" height="50" relative="1" as="geometry">
                        <mxPoint x="430" y="400" as="sourcePoint"/>
                        <mxPoint x="480" y="350" as="targetPoint"/>
                    </mxGeometry>
                </mxCell>
                <mxCell id="DcdAETs1muwsW6-YgNY1-32" value="" style="endArrow=none;html=1;rounded=0;exitX=0;exitY=1;exitDx=0;exitDy=0;entryX=0;entryY=0;entryDx=0;entryDy=0;" parent="DcdAETs1muwsW6-YgNY1-1" source="DcdAETs1muwsW6-YgNY1-30" target="DcdAETs1muwsW6-YgNY1-30" edge="1">
                    <mxGeometry width="50" height="50" relative="1" as="geometry">
                        <mxPoint x="410" y="390" as="sourcePoint"/>
                        <mxPoint x="410" y="370" as="targetPoint"/>
                    </mxGeometry>
                </mxCell>
                <mxCell id="DcdAETs1muwsW6-YgNY1-33" value="" style="rounded=1;whiteSpace=wrap;html=1;strokeColor=default;" parent="DcdAETs1muwsW6-YgNY1-1" vertex="1">
                    <mxGeometry x="520" y="320" width="120" height="60" as="geometry"/>
                </mxCell>
                <mxCell id="DcdAETs1muwsW6-YgNY1-34" value="PAIR" style="text;html=1;strokeColor=none;fillColor=none;align=center;verticalAlign=middle;whiteSpace=wrap;rounded=0;" parent="DcdAETs1muwsW6-YgNY1-1" vertex="1">
                    <mxGeometry x="520" y="320" width="60" height="20" as="geometry"/>
                </mxCell>
                <mxCell id="DcdAETs1muwsW6-YgNY1-35" value="PULL" style="text;html=1;strokeColor=none;fillColor=none;align=center;verticalAlign=middle;whiteSpace=wrap;rounded=0;" parent="DcdAETs1muwsW6-YgNY1-1" vertex="1">
                    <mxGeometry x="520" y="360" width="40" height="20" as="geometry"/>
                </mxCell>
                <mxCell id="DcdAETs1muwsW6-YgNY1-36" value="PUB" style="text;html=1;strokeColor=none;fillColor=none;align=center;verticalAlign=middle;whiteSpace=wrap;rounded=0;" parent="DcdAETs1muwsW6-YgNY1-1" vertex="1">
                    <mxGeometry x="560" y="360" width="40" height="20" as="geometry"/>
                </mxCell>
                <mxCell id="DcdAETs1muwsW6-YgNY1-37" value="PAIR" style="text;html=1;strokeColor=none;fillColor=none;align=center;verticalAlign=middle;whiteSpace=wrap;rounded=0;perimeterSpacing=0;" parent="DcdAETs1muwsW6-YgNY1-1" vertex="1">
                    <mxGeometry x="580" y="320" width="60" height="20" as="geometry"/>
                </mxCell>
                <mxCell id="DcdAETs1muwsW6-YgNY1-38" value="" style="endArrow=none;html=1;rounded=0;entryX=1;entryY=1;entryDx=0;entryDy=0;exitX=0;exitY=1;exitDx=0;exitDy=0;" parent="DcdAETs1muwsW6-YgNY1-1" source="DcdAETs1muwsW6-YgNY1-34" target="DcdAETs1muwsW6-YgNY1-37" edge="1">
                    <mxGeometry width="50" height="50" relative="1" as="geometry">
                        <mxPoint x="640" y="420" as="sourcePoint"/>
                        <mxPoint x="690" y="370" as="targetPoint"/>
                    </mxGeometry>
                </mxCell>
                <mxCell id="DcdAETs1muwsW6-YgNY1-39" value="" style="endArrow=none;html=1;rounded=0;exitX=0;exitY=0;exitDx=0;exitDy=0;entryX=1;entryY=0;entryDx=0;entryDy=0;" parent="DcdAETs1muwsW6-YgNY1-1" source="DcdAETs1muwsW6-YgNY1-35" target="DcdAETs1muwsW6-YgNY1-42" edge="1">
                    <mxGeometry width="50" height="50" relative="1" as="geometry">
                        <mxPoint x="670" y="390" as="sourcePoint"/>
                        <mxPoint x="730" y="380" as="targetPoint"/>
                    </mxGeometry>
                </mxCell>
                <mxCell id="DcdAETs1muwsW6-YgNY1-40" value="" style="endArrow=none;html=1;rounded=0;exitX=0;exitY=0;exitDx=0;exitDy=0;entryX=0;entryY=1;entryDx=0;entryDy=0;" parent="DcdAETs1muwsW6-YgNY1-1" source="DcdAETs1muwsW6-YgNY1-37" target="DcdAETs1muwsW6-YgNY1-37" edge="1">
                    <mxGeometry width="50" height="50" relative="1" as="geometry">
                        <mxPoint x="610" y="390" as="sourcePoint"/>
                        <mxPoint x="660" y="340" as="targetPoint"/>
                    </mxGeometry>
                </mxCell>
                <mxCell id="DcdAETs1muwsW6-YgNY1-41" value="DataNode" style="text;html=1;strokeColor=none;fillColor=none;align=center;verticalAlign=middle;whiteSpace=wrap;rounded=0;" parent="DcdAETs1muwsW6-YgNY1-1" vertex="1">
                    <mxGeometry x="520" y="340" width="120" height="20" as="geometry"/>
                </mxCell>
                <mxCell id="DcdAETs1muwsW6-YgNY1-42" value="SUB" style="text;html=1;strokeColor=none;fillColor=none;align=center;verticalAlign=middle;whiteSpace=wrap;rounded=0;" parent="DcdAETs1muwsW6-YgNY1-1" vertex="1">
                    <mxGeometry x="600" y="360" width="40" height="20" as="geometry"/>
                </mxCell>
                <mxCell id="DcdAETs1muwsW6-YgNY1-43" value="" style="endArrow=none;html=1;rounded=0;exitX=0;exitY=1;exitDx=0;exitDy=0;entryX=0;entryY=0;entryDx=0;entryDy=0;" parent="DcdAETs1muwsW6-YgNY1-1" source="DcdAETs1muwsW6-YgNY1-36" target="DcdAETs1muwsW6-YgNY1-36" edge="1">
                    <mxGeometry width="50" height="50" relative="1" as="geometry">
                        <mxPoint x="590" y="400" as="sourcePoint"/>
                        <mxPoint x="640" y="350" as="targetPoint"/>
                    </mxGeometry>
                </mxCell>
                <mxCell id="DcdAETs1muwsW6-YgNY1-44" value="" style="endArrow=none;html=1;rounded=0;exitX=0;exitY=1;exitDx=0;exitDy=0;entryX=0;entryY=0;entryDx=0;entryDy=0;" parent="DcdAETs1muwsW6-YgNY1-1" source="DcdAETs1muwsW6-YgNY1-42" target="DcdAETs1muwsW6-YgNY1-42" edge="1">
                    <mxGeometry width="50" height="50" relative="1" as="geometry">
                        <mxPoint x="570" y="390" as="sourcePoint"/>
                        <mxPoint x="570" y="370" as="targetPoint"/>
                    </mxGeometry>
                </mxCell>
                <mxCell id="DcdAETs1muwsW6-YgNY1-45" value="" style="rounded=1;whiteSpace=wrap;html=1;strokeColor=default;" parent="DcdAETs1muwsW6-YgNY1-1" vertex="1">
                    <mxGeometry x="360" y="490" width="120" height="60" as="geometry"/>
                </mxCell>
                <mxCell id="DcdAETs1muwsW6-YgNY1-46" style="edgeStyle=orthogonalEdgeStyle;rounded=0;orthogonalLoop=1;jettySize=auto;html=1;exitX=0.5;exitY=0;exitDx=0;exitDy=0;entryX=0.5;entryY=1;entryDx=0;entryDy=0;" parent="DcdAETs1muwsW6-YgNY1-1" source="DcdAETs1muwsW6-YgNY1-48" target="DcdAETs1muwsW6-YgNY1-22" edge="1">
                    <mxGeometry relative="1" as="geometry"/>
                </mxCell>
                <mxCell id="DcdAETs1muwsW6-YgNY1-47" style="edgeStyle=orthogonalEdgeStyle;rounded=0;orthogonalLoop=1;jettySize=auto;html=1;entryX=0.5;entryY=1;entryDx=0;entryDy=0;startArrow=none;startFill=0;endArrow=classic;endFill=1;" parent="DcdAETs1muwsW6-YgNY1-1" target="DcdAETs1muwsW6-YgNY1-35" edge="1">
                    <mxGeometry relative="1" as="geometry">
                        <mxPoint x="380" y="460" as="sourcePoint"/>
                        <Array as="points">
                            <mxPoint x="380" y="460"/>
                            <mxPoint x="540" y="460"/>
                        </Array>
                    </mxGeometry>
                </mxCell>
                <mxCell id="DcdAETs1muwsW6-YgNY1-48" value="PUSH" style="text;html=1;strokeColor=none;fillColor=none;align=center;verticalAlign=middle;whiteSpace=wrap;rounded=0;" parent="DcdAETs1muwsW6-YgNY1-1" vertex="1">
                    <mxGeometry x="360" y="490" width="40" height="20" as="geometry"/>
                </mxCell>
                <mxCell id="DcdAETs1muwsW6-YgNY1-49" value="PULL" style="text;html=1;strokeColor=none;fillColor=none;align=center;verticalAlign=middle;whiteSpace=wrap;rounded=0;" parent="DcdAETs1muwsW6-YgNY1-1" vertex="1">
                    <mxGeometry x="360" y="530" width="60" height="20" as="geometry"/>
                </mxCell>
                <mxCell id="DcdAETs1muwsW6-YgNY1-50" style="edgeStyle=orthogonalEdgeStyle;rounded=0;orthogonalLoop=1;jettySize=auto;html=1;exitX=0.5;exitY=1;exitDx=0;exitDy=0;startArrow=none;startFill=0;endArrow=classic;endFill=1;" parent="DcdAETs1muwsW6-YgNY1-1" source="DcdAETs1muwsW6-YgNY1-51" target="DcdAETs1muwsW6-YgNY1-67" edge="1">
                    <mxGeometry relative="1" as="geometry"/>
                </mxCell>
                <mxCell id="DcdAETs1muwsW6-YgNY1-51" value="PUSH" style="text;html=1;strokeColor=none;fillColor=none;align=center;verticalAlign=middle;whiteSpace=wrap;rounded=0;" parent="DcdAETs1muwsW6-YgNY1-1" vertex="1">
                    <mxGeometry x="420" y="530" width="60" height="20" as="geometry"/>
                </mxCell>
                <mxCell id="DcdAETs1muwsW6-YgNY1-52" value="SUB" style="text;html=1;strokeColor=none;fillColor=none;align=center;verticalAlign=middle;whiteSpace=wrap;rounded=0;perimeterSpacing=0;" parent="DcdAETs1muwsW6-YgNY1-1" vertex="1">
                    <mxGeometry x="400" y="490" width="40" height="20" as="geometry"/>
                </mxCell>
                <mxCell id="DcdAETs1muwsW6-YgNY1-53" value="" style="endArrow=none;html=1;rounded=0;entryX=1;entryY=1;entryDx=0;entryDy=0;exitX=0;exitY=1;exitDx=0;exitDy=0;" parent="DcdAETs1muwsW6-YgNY1-1" source="DcdAETs1muwsW6-YgNY1-48" target="DcdAETs1muwsW6-YgNY1-57" edge="1">
                    <mxGeometry width="50" height="50" relative="1" as="geometry">
                        <mxPoint x="480" y="590" as="sourcePoint"/>
                        <mxPoint x="530" y="540" as="targetPoint"/>
                    </mxGeometry>
                </mxCell>
                <mxCell id="DcdAETs1muwsW6-YgNY1-54" value="" style="endArrow=none;html=1;rounded=0;exitX=0;exitY=0;exitDx=0;exitDy=0;entryX=1;entryY=0;entryDx=0;entryDy=0;" parent="DcdAETs1muwsW6-YgNY1-1" source="DcdAETs1muwsW6-YgNY1-49" edge="1">
                    <mxGeometry width="50" height="50" relative="1" as="geometry">
                        <mxPoint x="510" y="560" as="sourcePoint"/>
                        <mxPoint x="480" y="530" as="targetPoint"/>
                    </mxGeometry>
                </mxCell>
                <mxCell id="DcdAETs1muwsW6-YgNY1-55" value="LeadNode" style="text;html=1;strokeColor=none;fillColor=none;align=center;verticalAlign=middle;whiteSpace=wrap;rounded=0;" parent="DcdAETs1muwsW6-YgNY1-1" vertex="1">
                    <mxGeometry x="360" y="510" width="120" height="20" as="geometry"/>
                </mxCell>
                <mxCell id="DcdAETs1muwsW6-YgNY1-56" style="edgeStyle=orthogonalEdgeStyle;rounded=0;orthogonalLoop=1;jettySize=auto;html=1;entryX=0.5;entryY=1;entryDx=0;entryDy=0;dashed=1;startArrow=none;startFill=0;endArrow=classic;endFill=1;dashPattern=1 1;" parent="DcdAETs1muwsW6-YgNY1-1" target="DcdAETs1muwsW6-YgNY1-42" edge="1">
                    <mxGeometry relative="1" as="geometry">
                        <mxPoint x="460" y="420" as="sourcePoint"/>
                        <Array as="points">
                            <mxPoint x="460" y="420"/>
                            <mxPoint x="620" y="420"/>
                        </Array>
                    </mxGeometry>
                </mxCell>
                <mxCell id="DcdAETs1muwsW6-YgNY1-57" value="PUB" style="text;html=1;strokeColor=none;fillColor=none;align=center;verticalAlign=middle;whiteSpace=wrap;rounded=0;perimeterSpacing=0;" parent="DcdAETs1muwsW6-YgNY1-1" vertex="1">
                    <mxGeometry x="440" y="490" width="40" height="20" as="geometry"/>
                </mxCell>
                <mxCell id="DcdAETs1muwsW6-YgNY1-58" value="" style="endArrow=none;html=1;rounded=0;exitX=1;exitY=1;exitDx=0;exitDy=0;entryX=1;entryY=0;entryDx=0;entryDy=0;" parent="DcdAETs1muwsW6-YgNY1-1" source="DcdAETs1muwsW6-YgNY1-48" target="DcdAETs1muwsW6-YgNY1-48" edge="1">
                    <mxGeometry width="50" height="50" relative="1" as="geometry">
                        <mxPoint x="350" y="490" as="sourcePoint"/>
                        <mxPoint x="400" y="440" as="targetPoint"/>
                    </mxGeometry>
                </mxCell>
                <mxCell id="DcdAETs1muwsW6-YgNY1-59" value="" style="endArrow=none;html=1;rounded=0;exitX=0;exitY=1;exitDx=0;exitDy=0;entryX=0;entryY=0;entryDx=0;entryDy=0;" parent="DcdAETs1muwsW6-YgNY1-1" source="DcdAETs1muwsW6-YgNY1-57" target="DcdAETs1muwsW6-YgNY1-57" edge="1">
                    <mxGeometry width="50" height="50" relative="1" as="geometry">
                        <mxPoint x="410" y="520.0000000000001" as="sourcePoint"/>
                        <mxPoint x="410" y="500.0000000000001" as="targetPoint"/>
                    </mxGeometry>
                </mxCell>
                <mxCell id="DcdAETs1muwsW6-YgNY1-60" value="" style="endArrow=none;html=1;rounded=0;exitX=0;exitY=1;exitDx=0;exitDy=0;entryX=1;entryY=0;entryDx=0;entryDy=0;" parent="DcdAETs1muwsW6-YgNY1-1" source="DcdAETs1muwsW6-YgNY1-51" target="DcdAETs1muwsW6-YgNY1-49" edge="1">
                    <mxGeometry width="50" height="50" relative="1" as="geometry">
                        <mxPoint x="370" y="510" as="sourcePoint"/>
                        <mxPoint x="420" y="460" as="targetPoint"/>
                    </mxGeometry>
                </mxCell>
                <mxCell id="DcdAETs1muwsW6-YgNY1-61" value="" style="rounded=1;whiteSpace=wrap;html=1;strokeColor=default;" parent="DcdAETs1muwsW6-YgNY1-1" vertex="1">
                    <mxGeometry x="360" y="590" width="120" height="60" as="geometry"/>
                </mxCell>
                <mxCell id="DcdAETs1muwsW6-YgNY1-62" value="" style="endArrow=none;html=1;rounded=0;entryX=1;entryY=1;entryDx=0;entryDy=0;exitX=0;exitY=1;exitDx=0;exitDy=0;" parent="DcdAETs1muwsW6-YgNY1-1" edge="1">
                    <mxGeometry width="50" height="50" relative="1" as="geometry">
                        <mxPoint x="360" y="610" as="sourcePoint"/>
                        <mxPoint x="480" y="610" as="targetPoint"/>
                    </mxGeometry>
                </mxCell>
                <mxCell id="DcdAETs1muwsW6-YgNY1-63" value="" style="endArrow=none;html=1;rounded=0;exitX=0;exitY=0;exitDx=0;exitDy=0;entryX=1;entryY=0;entryDx=0;entryDy=0;" parent="DcdAETs1muwsW6-YgNY1-1" edge="1">
                    <mxGeometry width="50" height="50" relative="1" as="geometry">
                        <mxPoint x="360" y="630" as="sourcePoint"/>
                        <mxPoint x="480" y="630" as="targetPoint"/>
                    </mxGeometry>
                </mxCell>
                <mxCell id="DcdAETs1muwsW6-YgNY1-64" value="REST-ful API" style="text;html=1;strokeColor=none;fillColor=none;align=center;verticalAlign=middle;whiteSpace=wrap;rounded=0;" parent="DcdAETs1muwsW6-YgNY1-1" vertex="1">
                    <mxGeometry x="360" y="610" width="120" height="20" as="geometry"/>
                </mxCell>
                <mxCell id="DcdAETs1muwsW6-YgNY1-65" style="edgeStyle=orthogonalEdgeStyle;rounded=0;orthogonalLoop=1;jettySize=auto;html=1;exitX=0.5;exitY=0;exitDx=0;exitDy=0;entryX=0.5;entryY=1;entryDx=0;entryDy=0;startArrow=none;startFill=0;endArrow=classic;endFill=1;" parent="DcdAETs1muwsW6-YgNY1-1" source="DcdAETs1muwsW6-YgNY1-66" target="DcdAETs1muwsW6-YgNY1-49" edge="1">
                    <mxGeometry relative="1" as="geometry"/>
                </mxCell>
                <mxCell id="DcdAETs1muwsW6-YgNY1-66" value="PUSH" style="text;html=1;strokeColor=none;fillColor=none;align=center;verticalAlign=middle;whiteSpace=wrap;rounded=0;" parent="DcdAETs1muwsW6-YgNY1-1" vertex="1">
                    <mxGeometry x="360" y="590" width="60" height="20" as="geometry"/>
                </mxCell>
                <mxCell id="DcdAETs1muwsW6-YgNY1-67" value="PULL" style="text;html=1;strokeColor=none;fillColor=none;align=center;verticalAlign=middle;whiteSpace=wrap;rounded=0;" parent="DcdAETs1muwsW6-YgNY1-1" vertex="1">
                    <mxGeometry x="420" y="590" width="60" height="20" as="geometry"/>
                </mxCell>
                <mxCell id="DcdAETs1muwsW6-YgNY1-68" value="" style="endArrow=none;html=1;rounded=0;exitX=0;exitY=0;exitDx=0;exitDy=0;entryX=0;entryY=1;entryDx=0;entryDy=0;" parent="DcdAETs1muwsW6-YgNY1-1" source="DcdAETs1muwsW6-YgNY1-67" target="DcdAETs1muwsW6-YgNY1-67" edge="1">
                    <mxGeometry width="50" height="50" relative="1" as="geometry">
                        <mxPoint x="420" y="650" as="sourcePoint"/>
                        <mxPoint x="420" y="630" as="targetPoint"/>
                    </mxGeometry>
                </mxCell>
                <mxCell id="DcdAETs1muwsW6-YgNY1-69" value="HTTP" style="text;html=1;strokeColor=none;fillColor=none;align=center;verticalAlign=middle;whiteSpace=wrap;rounded=0;" parent="DcdAETs1muwsW6-YgNY1-1" vertex="1">
                    <mxGeometry x="360" y="630" width="120" height="20" as="geometry"/>
                </mxCell>
                <mxCell id="DcdAETs1muwsW6-YgNY1-70" value="" style="endArrow=none;html=1;rounded=0;entryX=0.5;entryY=1;entryDx=0;entryDy=0;dashed=1;" parent="DcdAETs1muwsW6-YgNY1-1" target="DcdAETs1muwsW6-YgNY1-23" edge="1">
                    <mxGeometry width="50" height="50" relative="1" as="geometry">
                        <mxPoint x="420" y="440" as="sourcePoint"/>
                        <mxPoint x="420" y="420" as="targetPoint"/>
                    </mxGeometry>
                </mxCell>
                <mxCell id="DcdAETs1muwsW6-YgNY1-71" value="" style="endArrow=none;html=1;rounded=0;entryX=0.5;entryY=1;entryDx=0;entryDy=0;dashed=1;" parent="DcdAETs1muwsW6-YgNY1-1" target="DcdAETs1muwsW6-YgNY1-36" edge="1">
                    <mxGeometry width="50" height="50" relative="1" as="geometry">
                        <mxPoint x="420" y="440" as="sourcePoint"/>
                        <mxPoint x="430" y="390" as="targetPoint"/>
                        <Array as="points">
                            <mxPoint x="580" y="440"/>
                        </Array>
                    </mxGeometry>
                </mxCell>
                <mxCell id="DcdAETs1muwsW6-YgNY1-72" value="Multipart message" style="swimlane;fontStyle=0;childLayout=stackLayout;horizontal=1;startSize=30;horizontalStack=0;resizeParent=1;resizeParentMax=0;resizeLast=0;collapsible=1;marginBottom=0;whiteSpace=wrap;html=1;strokeColor=default;fillColor=none;" parent="DcdAETs1muwsW6-YgNY1-1" vertex="1">
                    <mxGeometry x="180" y="490" width="140" height="120" as="geometry"/>
                </mxCell>
                <mxCell id="DcdAETs1muwsW6-YgNY1-73" value="LiveNodes: list" style="text;strokeColor=none;fillColor=none;align=left;verticalAlign=middle;spacingLeft=4;spacingRight=4;overflow=hidden;points=[[0,0.5],[1,0.5]];portConstraint=eastwest;rotatable=0;whiteSpace=wrap;html=1;" parent="DcdAETs1muwsW6-YgNY1-72" vertex="1">
                    <mxGeometry y="30" width="140" height="30" as="geometry"/>
                </mxCell>
                <mxCell id="DcdAETs1muwsW6-YgNY1-74" value="NumRep: int" style="text;strokeColor=none;fillColor=none;align=left;verticalAlign=middle;spacingLeft=4;spacingRight=4;overflow=hidden;points=[[0,0.5],[1,0.5]];portConstraint=eastwest;rotatable=0;whiteSpace=wrap;html=1;" parent="DcdAETs1muwsW6-YgNY1-72" vertex="1">
                    <mxGeometry y="60" width="140" height="30" as="geometry"/>
                </mxCell>
                <mxCell id="DcdAETs1muwsW6-YgNY1-75" value="Data: bytes" style="text;strokeColor=none;fillColor=none;align=left;verticalAlign=middle;spacingLeft=4;spacingRight=4;overflow=hidden;points=[[0,0.5],[1,0.5]];portConstraint=eastwest;rotatable=0;whiteSpace=wrap;html=1;" parent="DcdAETs1muwsW6-YgNY1-72" vertex="1">
                    <mxGeometry y="90" width="140" height="30" as="geometry"/>
                </mxCell>
                <mxCell id="DcdAETs1muwsW6-YgNY1-76" value="Multipart message" style="swimlane;fontStyle=0;childLayout=stackLayout;horizontal=1;startSize=30;horizontalStack=0;resizeParent=1;resizeParentMax=0;resizeLast=0;collapsible=1;marginBottom=0;whiteSpace=wrap;html=1;strokeColor=default;fillColor=none;" parent="DcdAETs1muwsW6-YgNY1-1" vertex="1">
                    <mxGeometry x="240" y="160" width="140" height="90" as="geometry"/>
                </mxCell>
                <mxCell id="DcdAETs1muwsW6-YgNY1-77" value="sampledNode: list" style="text;strokeColor=none;fillColor=none;align=left;verticalAlign=middle;spacingLeft=4;spacingRight=4;overflow=hidden;points=[[0,0.5],[1,0.5]];portConstraint=eastwest;rotatable=0;whiteSpace=wrap;html=1;" parent="DcdAETs1muwsW6-YgNY1-76" vertex="1">
                    <mxGeometry y="30" width="140" height="30" as="geometry"/>
                </mxCell>
                <mxCell id="DcdAETs1muwsW6-YgNY1-78" value="Data: bytes" style="text;strokeColor=none;fillColor=none;align=left;verticalAlign=middle;spacingLeft=4;spacingRight=4;overflow=hidden;points=[[0,0.5],[1,0.5]];portConstraint=eastwest;rotatable=0;whiteSpace=wrap;html=1;" parent="DcdAETs1muwsW6-YgNY1-76" vertex="1">
                    <mxGeometry y="60" width="140" height="30" as="geometry"/>
                </mxCell>
            </root>
        </mxGraphModel>
    </diagram>
</mxfile>